<?xml version="1.0" standalone="no"?>
<!DOCTYPE svg PUBLIC "-//W3C//DTD SVG 20010904//EN"
 "http://www.w3.org/TR/2001/REC-SVG-20010904/DTD/svg10.dtd">
<svg version="1.0" xmlns="http://www.w3.org/2000/svg"
 width="1161.000000pt" height="1280.000000pt" viewBox="0 0 1161.000000 1280.000000"
 preserveAspectRatio="xMidYMid meet">
<g transform="translate(0.000000,1280.000000) scale(0.100000,-0.100000)"
fill="#000000" stroke="none">
<path d="M5970 12790 c-47 -5 -157 -14 -245 -20 -1219 -89 -2272 -532 -3034
-1275 -445 -435 -747 -896 -959 -1466 -113 -305 -211 -746 -212 -954 0 -125
43 -321 105 -476 13 -33 -228 -358 -689 -929 -631 -781 -820 -1055 -906 -1320
-36 -110 -36 -125 -8 -203 40 -111 126 -185 352 -304 137 -72 151 -76 296 -98
184 -27 265 -68 302 -152 24 -55 20 -94 -27 -243 -18 -58 -38 -129 -44 -158
-14 -69 -41 -120 -113 -215 -74 -97 -98 -148 -98 -212 0 -99 62 -183 223 -300
107 -78 105 -99 -27 -248 -102 -116 -126 -156 -126 -210 0 -37 3 -40 146 -209
144 -168 197 -274 197 -398 0 -68 -8 -100 -91 -350 -133 -400 -135 -408 -136
-585 -1 -139 1 -154 25 -211 53 -127 177 -282 307 -385 124 -99 261 -166 441
-216 l96 -26 937 -6 936 -6 27 -25 c167 -155 335 -705 451 -1477 l17 -113
3118 0 c1716 0 3119 1 3119 3 0 1 -23 115 -50 252 -240 1194 -403 2376 -417
3030 -8 364 5 453 104 715 105 280 245 522 587 1015 451 651 519 780 702 1330
180 542 267 974 316 1565 24 283 15 576 -28 920 -151 1218 -763 2242 -1760
2947 -801 566 -1858 911 -3039 993 -88 6 -210 15 -271 20 -126 11 -399 11
-524 0z"/>
</g>
</svg>
